<svg width="174" height="26" viewBox="0 0 174 26" fill="none" xmlns="http://www.w3.org/2000/svg">
<g clip-path="url(#clip0_1_2)">
<path d="M20.1369 26C22.8983 26 25.1842 23.7425 24.6732 21.0288C24.3528 19.3274 23.8679 17.6594 23.2235 16.0502C21.9602 12.8958 20.1087 10.0295 17.7745 7.61522C15.4403 5.2009 12.6692 3.28575 9.61949 1.97913C8.11383 1.33406 6.55481 0.843538 4.96489 0.512196C2.26154 -0.0511824 0 2.23858 0 5V21C0 23.7614 2.23858 26 5 26H20.1369Z" fill="#615DFF"/>
<g style="mix-blend-mode:multiply">
<path d="M13.7013 26C10.9399 26 8.65395 23.7425 9.16502 21.0288C9.48544 19.3274 9.97031 17.6594 10.6147 16.0502C11.878 12.8958 13.7295 10.0295 16.0637 7.61522C18.3979 5.2009 21.169 3.28575 24.2187 1.97913C25.7244 1.33406 27.2834 0.843538 28.8733 0.512196C31.5767 -0.0511824 33.8382 2.23858 33.8382 5V21C33.8382 23.7614 31.5996 26 28.8382 26H13.7013Z" fill="#3DD9EB"/>
</g>
<path d="M53.2666 11.6597C53.2419 12.2472 53.1213 12.776 52.9048 13.2461C52.6945 13.71 52.4131 14.1213 52.0605 14.48C51.7142 14.8387 51.3122 15.1449 50.8545 15.3984C50.3968 15.652 49.9082 15.8623 49.3887 16.0293C48.8753 16.1901 48.3434 16.3107 47.793 16.3911C47.2425 16.4653 46.7044 16.5024 46.1787 16.5024C45.8324 16.5024 45.4458 16.4901 45.019 16.4653C44.5923 16.4406 44.1346 16.3849 43.646 16.2983L43.6831 20.0186L41.7256 20.0928V6.96533C42.3812 6.74886 43.009 6.58496 43.6089 6.47363C44.215 6.3623 44.75 6.27881 45.2139 6.22314C45.7581 6.1613 46.2684 6.12419 46.7446 6.11182C47.1466 6.11182 47.5889 6.14583 48.0713 6.21387C48.5599 6.27572 49.0516 6.38704 49.5464 6.54785C50.0412 6.70866 50.5174 6.92513 50.9751 7.19727C51.439 7.4694 51.8441 7.81266 52.1904 8.22705C52.543 8.63525 52.8182 9.12386 53.0161 9.69287C53.214 10.2557 53.2975 10.9113 53.2666 11.6597ZM46.7446 8.16211C46.3921 8.16211 46.0365 8.17448 45.6777 8.19922C45.3623 8.22396 45.0221 8.27035 44.6572 8.33838C44.2923 8.40023 43.9367 8.493 43.5903 8.6167L43.6274 14.3965C44.0109 14.4707 44.3882 14.5202 44.7593 14.5449C45.1366 14.5697 45.4891 14.582 45.8169 14.582C46.1694 14.582 46.5467 14.5666 46.9487 14.5356C47.3507 14.4985 47.7497 14.4367 48.1455 14.3501C48.5413 14.2573 48.9217 14.1305 49.2866 13.9697C49.6515 13.8089 49.9731 13.6048 50.2515 13.3574C50.5298 13.1038 50.7524 12.8008 50.9194 12.4482C51.0864 12.0957 51.1699 11.6813 51.1699 11.2051C51.1699 10.7288 51.0648 10.3052 50.8545 9.93408C50.6504 9.56299 50.3535 9.25065 49.9639 8.99707C49.5804 8.7373 49.1165 8.5363 48.5723 8.39404C48.028 8.25179 47.4188 8.17448 46.7446 8.16211ZM62.0708 14.7769C62.0646 14.4738 62.0368 14.2109 61.9873 13.9883C61.944 13.7656 61.8853 13.5739 61.811 13.4131C61.743 13.2523 61.6626 13.1193 61.5698 13.0142C61.4832 12.909 61.3936 12.8224 61.3008 12.7544C61.0843 12.5998 60.84 12.5256 60.5679 12.5317C60.3947 12.5565 60.2091 12.6307 60.0112 12.7544C59.8195 12.8719 59.6216 13.0265 59.4175 13.2183C59.2134 13.4038 59.0062 13.6172 58.7959 13.8584C58.5918 14.0934 58.3939 14.3377 58.2021 14.5913C58.0104 14.8387 57.828 15.0861 57.6548 15.3335C57.4816 15.5809 57.327 15.8066 57.1909 16.0107C57.1971 16.4746 57.2064 16.9323 57.2188 17.3838C57.2311 17.8291 57.2404 18.2466 57.2466 18.6362C57.259 19.0197 57.2713 19.3691 57.2837 19.6846C57.3022 19.9938 57.3208 20.2443 57.3394 20.436L55.3447 20.6865C55.3076 19.6227 55.2736 18.661 55.2427 17.8013C55.2118 16.9354 55.1839 16.1623 55.1592 15.4819C55.1344 14.8016 55.1128 14.2017 55.0942 13.6821C55.0819 13.1626 55.0695 12.7142 55.0571 12.3369C55.0324 11.4525 55.0138 10.7969 55.0015 10.3701L57.1167 10.333C57.1229 10.7103 57.126 11.0968 57.126 11.4927C57.1322 11.8823 57.1383 12.241 57.1445 12.5688C57.1507 12.9523 57.1538 13.3265 57.1538 13.6914C57.3332 13.4069 57.5496 13.0946 57.8032 12.7544C58.063 12.4142 58.3537 12.0926 58.6753 11.7896C59.0031 11.4865 59.3587 11.2236 59.7422 11.001C60.1318 10.7721 60.5462 10.6299 60.9854 10.5742C61.4801 10.5495 61.9316 10.6546 62.3398 10.8896C62.513 10.9886 62.6831 11.1216 62.8501 11.2886C63.0233 11.4494 63.181 11.6597 63.3232 11.9194C63.4717 12.173 63.5954 12.4792 63.6943 12.8379C63.7933 13.1904 63.8613 13.6079 63.8984 14.0903L62.0708 14.7769ZM74.7437 15.5005C74.7437 16.2798 74.6138 17.0003 74.354 17.6621C74.0942 18.3239 73.7386 18.8991 73.2871 19.3877C72.8356 19.8763 72.3068 20.2567 71.7007 20.5288C71.0946 20.8071 70.4482 20.9463 69.7617 20.9463C69.0752 20.9463 68.432 20.8164 67.832 20.5566C67.2321 20.2969 66.7064 19.9289 66.2549 19.4526C65.8096 18.9702 65.457 18.395 65.1973 17.7271C64.9375 17.0591 64.8076 16.3169 64.8076 15.5005C64.8076 14.6779 64.9375 13.9326 65.1973 13.2646C65.457 12.5905 65.8096 12.0153 66.2549 11.5391C66.7064 11.0628 67.2321 10.6948 67.832 10.4351C68.432 10.1753 69.0752 10.0454 69.7617 10.0454C70.4482 10.0454 71.0946 10.1846 71.7007 10.4629C72.3068 10.735 72.8356 11.1154 73.2871 11.604C73.7386 12.0864 74.0942 12.6616 74.354 13.3296C74.6138 13.9914 74.7437 14.715 74.7437 15.5005ZM72.7861 15.4819C72.7861 15.0366 72.7305 14.5882 72.6191 14.1367C72.5078 13.679 72.3315 13.2708 72.0903 12.9121C71.8491 12.5472 71.5368 12.2503 71.1533 12.0215C70.7699 11.7926 70.306 11.6782 69.7617 11.6782C69.236 11.6782 68.7845 11.7926 68.4072 12.0215C68.0299 12.2503 67.7207 12.5472 67.4795 12.9121C67.2383 13.2708 67.062 13.679 66.9507 14.1367C66.8394 14.5882 66.7837 15.0366 66.7837 15.4819C66.7837 15.9272 66.8424 16.3757 66.96 16.8271C67.0837 17.2786 67.2692 17.6868 67.5166 18.0518C67.764 18.4105 68.0732 18.7043 68.4443 18.9331C68.8216 19.1619 69.2607 19.2764 69.7617 19.2764C70.2874 19.2764 70.7389 19.1619 71.1162 18.9331C71.4997 18.7043 71.8151 18.4105 72.0625 18.0518C72.3099 17.6868 72.4924 17.2786 72.6099 16.8271C72.7274 16.3757 72.7861 15.9272 72.7861 15.4819ZM86.4424 13.042L84.9023 13.979L84.8838 13.9233C84.723 13.6079 84.5282 13.3265 84.2993 13.0791C84.0705 12.8255 83.8138 12.6121 83.5293 12.439C83.2448 12.2596 82.9386 12.1235 82.6108 12.0308C82.2892 11.938 81.9521 11.8916 81.5996 11.8916C81.0924 11.8916 80.6162 11.9875 80.1709 12.1792C79.7318 12.3709 79.3452 12.6338 79.0112 12.9678C78.6834 13.3018 78.4237 13.6945 78.2319 14.146C78.0402 14.5913 77.9443 15.0675 77.9443 15.5747C77.9443 16.0757 78.0402 16.5488 78.2319 16.9941C78.4237 17.4395 78.6834 17.8291 79.0112 18.1631C79.3452 18.4971 79.7318 18.7599 80.1709 18.9517C80.6162 19.1434 81.0924 19.2393 81.5996 19.2393C81.9274 19.2393 82.2459 19.196 82.5552 19.1094C82.8644 19.0228 83.1551 18.9022 83.4272 18.7476C83.7056 18.5868 83.9591 18.395 84.188 18.1724C84.4168 17.9435 84.6117 17.6899 84.7725 17.4116L84.8096 17.356L86.4238 18.2744L86.4053 18.3301C86.1641 18.7321 85.8703 19.0939 85.5239 19.4155C85.1776 19.7371 84.7941 20.0124 84.3735 20.2412C83.9591 20.4762 83.5138 20.6556 83.0376 20.7793C82.5675 20.903 82.0882 20.9648 81.5996 20.9648C80.9007 20.9648 80.2235 20.8288 79.5679 20.5566C78.9185 20.2845 78.3371 19.9072 77.8237 19.4248C77.3166 18.9424 76.9084 18.3734 76.5991 17.7178C76.2961 17.0622 76.1445 16.3478 76.1445 15.5747C76.1445 15.1108 76.2064 14.6562 76.3301 14.2109C76.46 13.7594 76.6393 13.3327 76.8682 12.9307C77.1032 12.5286 77.3846 12.1576 77.7124 11.8174C78.0464 11.4772 78.4144 11.1865 78.8164 10.9453C79.2184 10.6979 79.6545 10.5062 80.1245 10.3701C80.5946 10.2279 81.0863 10.1567 81.5996 10.1567C82.1377 10.1567 82.6479 10.2217 83.1304 10.3516C83.619 10.4814 84.0705 10.6701 84.4849 10.9175C84.8993 11.1587 85.2703 11.4556 85.5981 11.8081C85.9259 12.1606 86.2012 12.5596 86.4238 13.0049L86.4424 13.042ZM92.3613 6.64062L92.2964 10.7876L95.896 10.667L95.7568 12.4019L92.2778 12.4946L92.2036 20.5845L90.2461 20.6309L90.4038 12.5503L87.1938 12.6245L87.231 10.9175L90.4409 10.8247L90.5151 6.76123L92.3613 6.64062ZM106.602 15.5005C106.602 16.2798 106.472 17.0003 106.212 17.6621C105.953 18.3239 105.597 18.8991 105.146 19.3877C104.694 19.8763 104.165 20.2567 103.559 20.5288C102.953 20.8071 102.307 20.9463 101.62 20.9463C100.934 20.9463 100.29 20.8164 99.6904 20.5566C99.0905 20.2969 98.5648 19.9289 98.1133 19.4526C97.668 18.9702 97.3154 18.395 97.0557 17.7271C96.7959 17.0591 96.666 16.3169 96.666 15.5005C96.666 14.6779 96.7959 13.9326 97.0557 13.2646C97.3154 12.5905 97.668 12.0153 98.1133 11.5391C98.5648 11.0628 99.0905 10.6948 99.6904 10.4351C100.29 10.1753 100.934 10.0454 101.62 10.0454C102.307 10.0454 102.953 10.1846 103.559 10.4629C104.165 10.735 104.694 11.1154 105.146 11.604C105.597 12.0864 105.953 12.6616 106.212 13.3296C106.472 13.9914 106.602 14.715 106.602 15.5005ZM104.645 15.4819C104.645 15.0366 104.589 14.5882 104.478 14.1367C104.366 13.679 104.19 13.2708 103.949 12.9121C103.708 12.5472 103.395 12.2503 103.012 12.0215C102.628 11.7926 102.164 11.6782 101.62 11.6782C101.094 11.6782 100.643 11.7926 100.266 12.0215C99.8883 12.2503 99.5791 12.5472 99.3379 12.9121C99.0967 13.2708 98.9204 13.679 98.8091 14.1367C98.6978 14.5882 98.6421 15.0366 98.6421 15.4819C98.6421 15.9272 98.7008 16.3757 98.8184 16.8271C98.9421 17.2786 99.1276 17.6868 99.375 18.0518C99.6224 18.4105 99.9316 18.7043 100.303 18.9331C100.68 19.1619 101.119 19.2764 101.62 19.2764C102.146 19.2764 102.597 19.1619 102.975 18.9331C103.358 18.7043 103.674 18.4105 103.921 18.0518C104.168 17.6868 104.351 17.2786 104.468 16.8271C104.586 16.3757 104.645 15.9272 104.645 15.4819ZM119.284 20.5288C119.105 19.8979 118.919 19.2733 118.728 18.6548C118.536 18.0301 118.335 17.4023 118.125 16.7715L110.656 17.0962C110.427 17.6899 110.208 18.2806 109.998 18.8682C109.787 19.4557 109.583 20.0495 109.385 20.6494L107.279 20.3618C108.151 18.0239 109.116 15.7231 110.174 13.4595C111.238 11.1958 112.369 8.95378 113.569 6.7334L116.167 6.77979C117.231 8.92594 118.202 11.1154 119.08 13.3481C119.958 15.5747 120.756 17.8631 121.474 20.2134L119.284 20.5288ZM114.673 8.27344C114.049 9.46094 113.458 10.6546 112.901 11.8545C112.345 13.0482 111.813 14.2573 111.306 15.4819L117.577 15.2129C117.157 14.0254 116.705 12.8595 116.223 11.7153C115.74 10.5711 115.224 9.42383 114.673 8.27344ZM125.667 19.6753H123.802L123.478 6.77979L125.546 6.854L125.667 19.6753Z" fill="#615DFF"/>
</g>
<defs>
<clipPath id="clip0_1_2">
<rect width="174" height="26" fill="white"/>
</clipPath>
</defs>
</svg>
